<svg version="1.1" id="Layer_1" xmlns="http://www.w3.org/2000/svg" xmlns:xlink="http://www.w3.org/1999/xlink" x="0" y="0" viewBox="0 0 266.9 193.3" enable-background="new 0 0 266.9 193.3" xml:space="preserve"><g><g><rect x="35.6" y="79.5" transform="matrix(0.7071 0.7071 -0.7071 0.7071 93.7408 4.8081)" fill="#24AFBA" width="11" height="72.2"/><path fill="#24AFBA" d="M13.5,166.2L1.4,154.2c-1.9-1.9-1.9-4.9,0-6.7l7.2-7.2l18.8,18.8l-7.2,7.2 C18.3,168.1,15.3,168.1,13.5,166.2z"/><rect x="46.5" y="90.4" transform="matrix(0.7071 0.7071 -0.7071 0.7071 104.6224 0.3008)" fill="#24AFBA" width="11" height="72.2"/><polygon fill="#24AFBA" points="65.9,83.1 91.4,76.3 84.5,101.8"/></g><rect x="112.8" y="157.1" fill="#24AFBA" width="42.2" height="23.2"/><rect x="98.7" y="177.8" fill="#2B93D8" width="70.4" height="15.5"/><polygon fill="#2B93D8" points="0.8,0 0.8,121.9 15.5,107.3 15.5,14.7 252.2,14.7 252.2,152.4 63.6,152.4 48.9,167.1 266.9,167.1 266.9,0"/><rect x="32.9" y="31.4" fill="#2B93D8" width="200.5" height="24.1"/><rect x="112.2" y="109.7" fill="#2B93D8" width="121.3" height="24.1"/><rect x="112.2" y="71.1" fill="#24AFBA" width="121.3" height="24.1"/></g></svg>
